<?xml version="1.0" encoding="iso-8859-1"?>
<!-- Generator: Adobe Illustrator 18.0.0, SVG Export Plug-In . SVG Version: 6.00 Build 0)  -->
<!DOCTYPE svg PUBLIC "-//W3C//DTD SVG 1.1//EN" "http://www.w3.org/Graphics/SVG/1.1/DTD/svg11.dtd">
<svg version="1.1" id="Capa_1" xmlns="http://www.w3.org/2000/svg" xmlns:xlink="http://www.w3.org/1999/xlink" x="0px" y="0px"
	 viewBox="0 0 493.125 493.125" style="enable-background:new 0 0 493.125 493.125;" xml:space="preserve">
<g>
	<path d="M277.665,86.329c-25.554-25.554-59.53-39.627-95.669-39.627c-36.139,0-70.114,14.073-95.668,39.627
		c-25.554,25.554-39.627,59.53-39.627,95.668c0,36.139,14.073,70.115,39.627,95.669c25.554,25.554,59.529,39.626,95.668,39.626
		c36.139,0,70.115-14.073,95.669-39.627C330.416,224.914,330.417,139.081,277.665,86.329z M67.701,181.998
		c0-30.529,11.889-59.231,33.477-80.819c21.587-21.587,50.289-33.477,80.819-33.477c30.53,0,59.232,11.889,80.819,33.477
		c18.403,18.403,29.199,41.574,32.402,65.574c-25.861-2.979-40.504-20.845-40.504-50.05c0-5.799-4.701-10.5-10.5-10.5H127.157
		c-16.967,0-30.771,13.804-30.771,30.771v80.071c0,16.968,13.804,30.772,30.771,30.772h31.877v46.178
		c-21.774-4.418-41.788-15.108-57.857-31.178C79.59,241.23,67.701,212.527,67.701,181.998z M262.815,262.816
		c-21.587,21.588-50.29,33.477-80.819,33.477c-0.655,0-1.308-0.013-1.962-0.024v-58.952c0-5.799-4.701-10.5-10.5-10.5h-42.377
		c-5.388,0-9.771-4.384-9.771-9.772v-80.071c0-5.388,4.383-9.771,9.771-9.771h107.104c1.779,16.614,7.866,30.723,17.869,41.222
		c10.91,11.451,26.005,18.114,43.951,19.497C294.679,215.185,283.594,242.038,262.815,262.816z"/>
	<path d="M484.714,411.901l-63.471-63.471h1.458c11.218,0,20.344-9.126,20.344-20.344v-87.449h12.146
		c11.536,0,20.92-9.385,20.92-20.921v-41.16c0-11.536-9.385-20.92-20.92-20.92h-61.034c-5.799,0-10.5,4.701-10.5,10.5
		c0,11.889-8.621,21.796-19.938,23.815c0.177-3.303,0.274-6.621,0.274-9.954c0-48.613-18.931-94.317-53.306-128.692
		C276.313,18.932,230.61,0,181.997,0C133.384,0,87.68,18.932,53.306,53.306C18.931,87.681,0,133.384,0,181.998
		c0,48.614,18.931,94.317,53.305,128.692c34.375,34.375,80.078,53.306,128.69,53.306c37.646,0,73.542-11.361,103.788-32.447
		l32.259,32.259c-1.822,3.813-2.786,8.017-2.786,12.368c0,7.671,2.987,14.882,8.411,20.307l88.232,88.232
		c5.424,5.423,12.636,8.41,20.306,8.41c7.67,0,14.882-2.987,20.306-8.411l32.202-32.201c5.424-5.424,8.411-12.636,8.411-20.306
		C493.125,424.537,490.138,417.326,484.714,411.901z M403.426,178.636h51.685v41.001h-22.566c-5.799,0-10.5,4.701-10.5,10.5v97.293
		h-21.802l-3.762-3.762c-5.424-5.424-12.636-8.412-20.306-8.412c-4.353,0-8.556,0.964-12.37,2.787l-32.258-32.259
		c15.149-21.73,25.281-46.374,29.781-72.492C381.809,212.456,398.818,197.927,403.426,178.636z M68.155,295.84
		C37.746,265.432,21,225.002,21,181.998c0-43.004,16.746-83.434,47.155-113.842C98.563,37.747,138.993,21,181.997,21
		s83.434,16.747,113.842,47.155c30.408,30.408,47.155,70.838,47.155,113.842c0,43.004-16.747,83.434-47.155,113.842
		C265.43,326.249,225,342.996,181.996,342.996C138.992,342.996,98.563,326.249,68.155,295.84z M310.688,310.689
		c2.692-2.692,5.277-5.461,7.778-8.288l29.335,29.336l-16.064,16.064l-29.335-29.335
		C305.227,315.966,307.996,313.38,310.688,310.689z M469.865,437.664l-32.201,32.201c-1.458,1.457-3.396,2.26-5.457,2.26
		c-2.062,0-4-0.803-5.457-2.26l-88.232-88.232c-1.458-1.458-2.261-3.396-2.261-5.457c0-2.061,0.803-3.999,2.261-5.457l32.201-32.202
		c1.457-1.457,3.396-2.26,5.457-2.26c2.061,0,3.999,0.803,5.457,2.261l88.232,88.233c1.458,1.457,2.261,3.396,2.261,5.457
		C472.125,434.269,471.322,436.207,469.865,437.664z"/>
</g>
<g>
</g>
<g>
</g>
<g>
</g>
<g>
</g>
<g>
</g>
<g>
</g>
<g>
</g>
<g>
</g>
<g>
</g>
<g>
</g>
<g>
</g>
<g>
</g>
<g>
</g>
<g>
</g>
<g>
</g>
</svg>
