<?xml version="1.0" encoding="iso-8859-1"?>
<!-- Generator: Adobe Illustrator 19.0.0, SVG Export Plug-In . SVG Version: 6.00 Build 0)  -->
<svg version="1.1" id="Layer_1" xmlns="http://www.w3.org/2000/svg" xmlns:xlink="http://www.w3.org/1999/xlink" x="0px" y="0px"
	 viewBox="0 0 297 297" style="enable-background:new 0 0 297 297;" xml:space="preserve">
<g>
	<g>
		<g>
			<path d="M83.119,103.678h22.724v64.692c0,5.504,4.463,9.966,9.966,9.966h65.382c5.504,0,9.966-4.463,9.966-9.966v-64.692h22.724
				c4.031,0,7.666-2.428,9.208-6.152c1.542-3.725,0.689-8.011-2.161-10.862l-65.382-65.381c-3.893-3.891-10.202-3.891-14.095,0
				l-65.38,65.381c-2.85,2.851-3.702,7.137-2.161,10.862C75.453,101.25,79.087,103.678,83.119,103.678z M148.5,42.424l41.321,41.321
				h-8.629c-5.504,0-9.966,4.463-9.966,9.966v64.692h-45.45V93.712c0-5.504-4.463-9.966-9.966-9.966h-8.629L148.5,42.424z"/>
			<path d="M287.034,135.563h-46.178c-5.504,0-9.966,4.463-9.966,9.966v51.604H66.11v-51.604c0-5.504-4.463-9.966-9.966-9.966H9.966
				c-5.504,0-9.966,4.463-9.966,9.966v89.712c0,23.928,19.467,43.395,43.395,43.395h210.21c23.928,0,43.395-19.467,43.395-43.395
				v-89.712C297,140.025,292.537,135.563,287.034,135.563z M277.067,235.241c0,12.937-10.525,23.462-23.462,23.462H43.395
				c-12.937,0-23.462-10.525-23.462-23.462v-79.745h26.245V207.1c0,5.504,4.463,9.966,9.966,9.966h184.712
				c5.504,0,9.966-4.463,9.966-9.966v-51.604h26.245V235.241z"/>
		</g>
	</g>
</g>
<g>
</g>
<g>
</g>
<g>
</g>
<g>
</g>
<g>
</g>
<g>
</g>
<g>
</g>
<g>
</g>
<g>
</g>
<g>
</g>
<g>
</g>
<g>
</g>
<g>
</g>
<g>
</g>
<g>
</g>
</svg>
